<svg width="22" height="32" viewBox="0 0 22 32" fill="none" xmlns="http://www.w3.org/2000/svg">
<path d="M14.7187 23.2222V27.6667C14.7187 29.5076 13.2263 31 11.3854 31H10.7201C8.89555 31 7.41005 29.5331 7.38702 27.7087L7.33039 23.2222M14.7187 23.2222H7.33039M14.7187 23.2222C14.7187 21.8767 15.5616 20.7038 16.6572 19.9229C19.2801 18.0535 21 14.9202 21 11.3704C21 5.64297 16.5228 1 11 1C5.47715 1 1 5.64297 1 11.3704C1 14.9389 2.73807 18.0865 5.38422 19.9523C6.46295 20.7129 7.30011 21.8513 7.32926 23.1709L7.33039 23.2222M11 5.16667C14.2217 5.16667 16.8333 7.87507 16.8333 11.216" stroke="#3285FF" stroke-width="2" stroke-linecap="round" stroke-linejoin="round"/>
</svg>
