<svg width="63" height="62" viewBox="0 0 63 62" fill="none" xmlns="http://www.w3.org/2000/svg">
<path d="M26.3348 0C24.6299 0.0809188 23.2529 1.47272 23.2529 3.1882V44.8938H17.8596V11.6038C17.8596 9.90446 16.4826 8.49648 14.7778 8.41556C13.0729 8.49648 11.6959 9.88828 11.6959 11.6038V21.2007H3.04043C3.04043 21.2007 3.13879 21.2007 3.20436 21.2007C1.54868 21.2816 0.22085 22.5925 0.138885 24.2271C0.138885 24.1785 0.138885 24.13 0.138885 24.0653V39.7959C0.138885 41.4952 1.51589 42.9032 3.22076 42.9841C4.92562 42.9032 6.30263 41.5114 6.30263 39.7959V27.2535H11.7123V48.0496C11.7123 48.0496 11.7123 47.9525 11.7123 47.8878C11.7943 49.5223 13.1221 50.8332 14.7778 50.9141C14.7286 50.9141 14.6794 50.9141 14.6138 50.9141H23.2529V58.8118C23.2529 60.5111 24.6299 61.9191 26.3348 62C28.0397 61.9191 29.4167 60.5273 29.4167 58.8118V3.1882C29.4167 1.48891 28.0397 0.0809188 26.3348 0Z" fill="white"/>
<path d="M63 22.9893C63 21.2918 61.6567 19.8853 59.9936 19.8044C58.3305 19.8853 56.9872 21.2756 56.9872 22.9893V34.7426H51.838V14.2754C51.838 12.5778 50.4947 11.1713 48.8316 11.0905C48.7996 11.0905 48.7836 11.0905 48.7517 11.0905C48.6717 11.0905 48.5918 11.0743 48.5118 11.0743H40.5961V3.18488C40.5961 1.48735 39.2528 0.0808344 37.5897 0C35.9266 0.0808344 34.5833 1.47119 34.5833 3.18488V58.8151C34.5833 60.5126 35.9266 61.9192 37.5897 62C39.2528 61.9192 40.5961 60.5288 40.5961 58.8151V17.1531H45.8093V50.4083C45.8093 52.1059 47.1525 53.5124 48.8156 53.5932C50.4787 53.5124 51.822 52.122 51.822 50.4083V40.8214H59.7857C59.8817 40.8214 59.9776 40.8052 60.0736 40.7891H60.1375C60.1375 40.7891 60.1215 40.7891 60.1055 40.7891C60.8571 40.7082 61.5288 40.3849 62.0405 39.8675C62.5522 39.3502 62.872 38.6712 62.952 37.9113C62.952 37.9113 62.952 37.9275 62.952 37.9437V37.8952C62.952 37.7982 62.984 37.7012 62.984 37.6042V23.0055L63 22.9893Z" fill="white"/>
</svg>
