<svg width="32" height="29" viewBox="0 0 32 29" fill="none" xmlns="http://www.w3.org/2000/svg">
<path d="M1 21L9.82149 12.1785C10.4724 11.5276 11.5276 11.5276 12.1785 12.1785L19.3333 19.3333M19.3333 19.3333L16.8333 21.8333M19.3333 19.3333L22.3215 16.3452C22.9724 15.6943 24.0276 15.6943 24.6785 16.3452L31 22.6667M4.33333 27.6667H27.6667C29.5076 27.6667 31 26.1743 31 24.3333V4.33333C31 2.49238 29.5076 1 27.6667 1H4.33333C2.49238 1 1 2.49238 1 4.33333V24.3333C1 26.1743 2.49238 27.6667 4.33333 27.6667ZM26.8333 8.5C26.8333 10.3409 25.3409 11.8333 23.5 11.8333C21.659 11.8333 20.1667 10.3409 20.1667 8.5C20.1667 6.65905 21.659 5.16667 23.5 5.16667C25.3409 5.16667 26.8333 6.65905 26.8333 8.5Z" stroke="#3285FF" stroke-width="2" stroke-linecap="round" stroke-linejoin="round"/>
</svg>
