<svg width="35" height="35" viewBox="0 0 35 35" fill="none" xmlns="http://www.w3.org/2000/svg">
<circle cx="17.5" cy="17.5" r="15.85" stroke="white" stroke-width="2"/>
<path d="M17.5 34C15.273 34 13.1119 33.5635 11.0772 32.703C9.11231 31.8718 7.34797 30.6822 5.83287 29.1675C4.31776 27.6524 3.12817 25.888 2.29738 23.9232C1.43652 21.8881 1 19.727 1 17.5C1 15.273 1.43652 13.1119 2.29702 11.0772C3.12817 9.11231 4.31776 7.34797 5.83251 5.83287C7.34761 4.31776 9.11195 3.12817 11.0768 2.29738C13.1119 1.43652 15.273 1 17.5 1C19.727 1 21.8881 1.43652 23.9228 2.29702C25.8877 3.12817 27.6524 4.31776 29.1671 5.83251C30.6822 7.34761 31.8718 9.11195 32.7026 11.0768C33.5635 13.1119 33.9996 15.2726 33.9996 17.4996C33.9996 19.7266 33.5631 21.8878 32.7026 23.9225C31.8715 25.8873 30.6819 27.652 29.1671 29.1668C27.652 30.6819 25.8877 31.8715 23.9228 32.7023C21.8878 33.5631 19.727 33.9993 17.5 33.9993V34ZM17.5 3.14858C9.58679 3.14858 3.14858 9.58643 3.14858 17.5C3.14858 25.4136 9.58643 31.8514 17.5 31.8514C25.4136 31.8514 31.8514 25.4136 31.8514 17.5C31.8514 9.58643 25.4132 3.14858 17.5 3.14858Z" fill="white"/>
<path d="M13.7909 26.0754C13.5674 26.0754 13.3436 26.0213 13.1384 25.9124C12.6822 25.6704 12.3989 25.1995 12.3989 24.6827V10.3166C12.3989 9.80024 12.6822 9.32899 13.1384 9.08727C13.5946 8.8452 14.1436 8.87457 14.5712 9.16427L25.179 16.3473C25.5618 16.6066 25.7907 17.0374 25.7907 17.4997C25.7907 17.962 25.5622 18.3928 25.1794 18.652L14.5715 25.8351C14.3362 25.9944 14.0644 26.075 13.7912 26.075L13.7909 26.0754Z" fill="white"/>
</svg>
