<svg width="34" height="34" viewBox="0 0 34 34" fill="none" xmlns="http://www.w3.org/2000/svg">
<path d="M22 1H11.6667C7.93298 1 6.06614 1 4.64006 1.72662C3.38565 2.36578 2.36578 3.38565 1.72662 4.64006C1 6.06614 1 7.93298 1 11.6667V22C1 25.7337 1 27.6005 1.72662 29.0266C2.36578 30.281 3.38565 31.3009 4.64006 31.94C6.06614 32.6667 7.93298 32.6667 11.6667 32.6667H22C25.7337 32.6667 27.6005 32.6667 29.0266 31.94C30.281 31.3009 31.3009 30.281 31.94 29.0266C32.6667 27.6005 32.6667 25.7337 32.6667 22V11.6667C32.6667 7.93298 32.6667 6.06614 31.94 4.64006C31.3009 3.38565 30.281 2.36578 29.0266 1.72662C27.6005 1 25.7337 1 22 1Z" stroke="#3285FF" stroke-width="2" stroke-linecap="round" stroke-linejoin="round"/>
<path d="M17.1255 20.1666C13.3874 20.1666 10.1719 21.7921 8.74522 24.4616C7.87753 26.0853 9.45122 27.6666 11.2922 27.6666H22.9588C24.7998 27.6666 26.3735 26.0853 25.5058 24.4616C24.0791 21.7921 20.8636 20.1666 17.1255 20.1666Z" stroke="#3285FF" stroke-width="2" stroke-linecap="round" stroke-linejoin="round"/>
<path d="M21.2922 11C21.2922 13.3012 19.4267 15.1666 17.1255 15.1666C14.8243 15.1666 12.9588 13.3012 12.9588 11C12.9588 8.69879 14.8243 6.83331 17.1255 6.83331C19.4267 6.83331 21.2922 8.69879 21.2922 11Z" stroke="#3285FF" stroke-width="2" stroke-linecap="round" stroke-linejoin="round"/>
</svg>
