<svg width="32" height="32" viewBox="0 0 32 32" fill="none" xmlns="http://www.w3.org/2000/svg">
<path d="M28.9447 7.11368C28.6176 6.584 28.0807 6.1961 27.4514 6.03791C26.8209 5.87971 26.1505 5.96291 25.5861 6.26877C24.6483 6.77613 23.5177 6.77556 22.5804 6.26725L21.6092 5.74055C20.73 5.26376 20.1824 4.34389 20.1824 3.34375C20.1824 2.06875 19.085 1 17.7278 1H14.2719C12.9148 1 11.8173 2.06875 11.8173 3.34375C11.8173 4.34395 11.2699 5.26393 10.3908 5.74107L9.42074 6.26761C8.48347 6.77635 7.35254 6.77679 6.41487 6.26877C5.85053 5.96292 5.1788 5.8797 4.5483 6.03791C3.91901 6.19611 3.38216 6.584 3.05502 7.11368L1.32953 9.9215C1.00367 10.4512 0.915001 11.0817 1.08356 11.6723C1.25212 12.2641 1.66414 12.768 2.22848 13.0738C3.15182 13.575 3.72694 14.5413 3.72725 15.5919L3.72749 16.4081C3.7278 17.4586 3.15298 18.425 2.22973 18.9262C1.66539 19.2332 1.2521 19.7359 1.08356 20.3266C0.91501 20.9184 1.00366 21.5488 1.32953 22.0785L3.05751 24.8863C3.38337 25.416 3.92026 25.8039 4.54954 25.9621C5.18008 26.1203 5.85053 26.0371 6.41612 25.7312C7.35391 25.2239 8.48451 25.2245 9.42177 25.7328L10.3895 26.2577C11.2693 26.7348 11.8173 27.6554 11.8173 28.6562C11.8173 29.9312 12.9147 31 14.2719 31H17.7268C19.0852 31 20.1815 29.9312 20.1815 28.6562C20.1822 27.6553 20.7306 26.735 21.6106 26.2579L22.5794 25.7326C23.5167 25.2244 24.6473 25.2239 25.5851 25.7312C26.1507 26.0371 26.8212 26.1203 27.4504 25.9621C28.081 25.8039 28.6178 25.416 28.9437 24.8863L30.6705 22.0785C30.9963 21.5488 31.085 20.9183 30.9164 20.3277C30.7479 19.7359 30.3359 19.232 29.7715 18.9262C28.8482 18.425 28.2732 17.4587 28.2732 16.4081V15.5918C28.2732 14.5413 28.8482 13.575 29.7715 13.0738C30.3359 12.7668 30.7479 12.264 30.9164 11.6734C31.085 11.0816 30.9963 10.4511 30.6705 9.92147L28.9447 7.11368Z" stroke="#3285FF" stroke-width="2" stroke-linecap="round" stroke-linejoin="round"/>
<path d="M21 16C21 18.7614 18.7614 21 16 21C13.2386 21 11 18.7614 11 16C11 13.2386 13.2386 11 16 11C18.7614 11 21 13.2386 21 16Z" stroke="#3285FF" stroke-width="2" stroke-linecap="round" stroke-linejoin="round"/>
</svg>
