<svg width="27" height="31" viewBox="0 0 27 31" fill="none" xmlns="http://www.w3.org/2000/svg">
<path d="M17.6667 5.16669L1.83333 5.16667M17.6667 5.16669C17.6667 7.46788 19.5321 9.33333 21.8333 9.33333C24.1345 9.33333 26 7.46785 26 5.16667C26 2.86548 24.1345 1 21.8333 1C19.5321 1 17.6667 2.86551 17.6667 5.16669ZM25.1667 15.1666H9.33334M9.33334 15.1666C9.33334 17.4678 7.46785 19.3333 5.16667 19.3333C2.86548 19.3333 1 17.4678 1 15.1667C1 12.8655 2.86548 11 5.16667 11C7.46785 11 9.33334 12.8655 9.33334 15.1666ZM17.6667 25.1667L1.83333 25.1667M17.6667 25.1667C17.6667 27.4679 19.5321 29.3333 21.8333 29.3333C24.1345 29.3333 26 27.4678 26 25.1667C26 22.8655 24.1345 21 21.8333 21C19.5321 21 17.6667 22.8655 17.6667 25.1667Z" stroke="#3285FF" stroke-width="2" stroke-linecap="round" stroke-linejoin="round"/>
</svg>
